<mxfile host="65bd71144e">
    <diagram id="A3Ls7FMNztHTLVLtRV52" name="Page-1">
        <mxGraphModel dx="666" dy="1485" grid="1" gridSize="10" guides="1" tooltips="1" connect="1" arrows="1" fold="1" page="1" pageScale="1" pageWidth="850" pageHeight="1100" math="0" shadow="0">
            <root>
                <mxCell id="0"/>
                <mxCell id="1" parent="0"/>
                <mxCell id="5" value="" style="whiteSpace=wrap;html=1;" vertex="1" parent="1">
                    <mxGeometry x="60" y="-30" width="120" height="320" as="geometry"/>
                </mxCell>
                <mxCell id="2" value="Job 1" style="whiteSpace=wrap;html=1;" vertex="1" parent="1">
                    <mxGeometry x="60" width="120" height="60" as="geometry"/>
                </mxCell>
                <mxCell id="3" value="Job 2" style="whiteSpace=wrap;html=1;" vertex="1" parent="1">
                    <mxGeometry x="60" y="80" width="120" height="60" as="geometry"/>
                </mxCell>
                <mxCell id="4" value="Job 3" style="whiteSpace=wrap;html=1;" vertex="1" parent="1">
                    <mxGeometry x="60" y="160" width="120" height="60" as="geometry"/>
                </mxCell>
            </root>
        </mxGraphModel>
    </diagram>
</mxfile>